<svg width="589" height="130" viewBox="0 0 589 130" fill="none" xmlns="http://www.w3.org/2000/svg">
<g style="mix-blend-mode:exclusion">
<path d="M0 127.295V123.771H13.0613V34.2081H0V30.6836H58.05C68.4161 30.6836 76.087 32.7568 81.0627 36.9032C86.0384 41.0497 88.5263 46.6473 88.5263 54.1109C88.5263 59.5013 86.6604 64.0623 82.7213 67.5868C78.7822 71.3186 74.0138 73.5991 68.0014 74.8431V75.6723C75.6723 76.709 81.6847 79.4041 86.0384 83.7579C90.3922 88.319 92.6727 93.9166 92.6727 100.758C92.6727 109.051 89.5629 115.685 83.5505 120.246C77.3309 125.015 69.038 127.295 58.4647 127.295H0ZM26.9518 73.3918H60.1232C64.8916 73.3918 68.4161 71.7332 70.9039 68.2088C73.3918 64.6843 74.4284 60.3306 74.4284 54.7329C74.4284 52.0377 74.2211 49.5498 73.5991 47.2693C72.9771 44.9888 72.1479 42.9156 70.9039 40.8423C69.66 38.7691 67.7941 37.1106 65.5136 36.0739C63.0257 34.83 60.1232 34.4154 56.8061 34.4154H26.9518V73.3918ZM26.9518 123.771H57.2207C70.4893 123.771 77.1236 115.893 77.1236 99.929C77.1236 92.6727 75.6723 87.075 72.9771 82.9286C70.282 78.7822 65.9282 76.709 60.1232 76.709H26.9518V123.771Z" fill="#000000"/>
<path d="M107.81 79.4041C107.81 73.1845 108.639 67.5868 110.297 61.9891C111.956 56.5987 114.444 51.8304 117.346 47.8912C120.249 43.9521 123.773 40.4277 127.712 37.5252C131.652 34.6227 135.798 32.3421 140.359 30.8909C144.92 29.4396 149.481 28.6104 154.25 28.6104C159.018 28.6104 163.579 29.4396 168.14 30.8909C172.701 32.3421 176.848 34.6227 180.787 37.5252C184.726 40.4277 188.25 43.9521 191.153 47.8912C194.055 51.8304 196.543 56.5987 198.202 61.9891C199.86 67.3795 200.69 73.1845 200.69 79.4041C200.69 87.075 199.446 93.9166 196.75 100.344C194.055 106.771 190.531 111.954 186.177 116.1C181.823 120.246 176.848 123.564 171.457 125.844C165.86 128.125 160.262 129.369 154.25 129.369C148.237 129.369 142.64 128.125 137.042 125.844C131.444 123.564 126.676 120.246 122.322 116.1C117.968 111.954 114.444 106.771 111.749 100.344C109.053 93.9166 107.81 86.8677 107.81 79.4041ZM123.566 79.4041C123.566 94.7459 126.261 106.149 131.444 114.027C136.835 121.905 144.298 125.844 154.042 125.844C163.786 125.844 171.457 121.905 176.64 114.027C182.031 106.149 184.518 94.5386 184.518 79.4041C184.518 64.0623 181.823 52.4523 176.433 44.3668C171.043 36.2812 163.579 32.3421 153.835 32.3421C144.091 32.3421 136.627 36.2812 131.237 44.3668C126.261 52.245 123.566 64.0623 123.566 79.4041Z" fill="#000000"/>
<path d="M213.955 127.295V123.771H227.638V34.2081H213.955V30.6836H247.541L288.798 98.4777V34.2081H274.907V30.6836H306.835V34.2081H293.151V129.369H289.212L233.443 38.1472C232.614 36.9032 232.199 35.452 232.199 34.2081H231.784V123.978H245.467V127.503H213.955V127.295Z" fill="#000000"/>
<path d="M315.543 79.4041C315.543 73.1845 316.373 67.5868 318.031 61.9891C319.69 56.5987 322.178 51.8304 325.08 47.8912C327.983 43.9521 331.507 40.4277 335.446 37.5252C339.385 34.6227 343.532 32.3421 348.093 30.8909C352.654 29.4396 357.215 28.6104 361.983 28.6104C368.825 28.6104 375.045 29.647 380.85 31.7202C383.545 32.7568 385.618 33.1714 387.277 33.1714C388.728 33.1714 389.765 32.7568 390.386 32.1348C391.216 31.3055 392.045 30.2689 392.667 28.6104H395.57V60.3305H392.667C391.008 53.6962 388.521 47.8912 384.996 43.1229C383.96 41.6716 382.923 40.4277 381.679 39.1837C380.642 38.1471 378.984 36.9032 377.325 35.6593C375.459 34.4154 373.179 33.5861 370.691 32.7568C367.996 32.1348 365.093 31.7202 361.776 31.7202C352.032 31.7202 344.568 35.6593 339.178 43.7448C333.788 51.8304 331.093 63.4403 331.093 78.7821C331.093 94.1239 333.788 105.527 338.971 113.405C344.361 121.283 351.825 125.222 361.569 125.222C364.886 125.222 367.788 124.808 370.484 124.186C373.179 123.564 375.252 122.527 377.118 121.283C378.984 120.039 380.435 119.002 381.472 117.759C382.508 116.722 383.752 115.271 384.789 113.819C388.313 109.051 390.801 103.246 392.46 96.6118H395.362V128.332H392.46C391.838 127.295 391.423 126.466 391.008 125.844C390.594 125.222 389.972 124.807 389.35 124.393C388.728 123.978 387.691 123.771 386.862 123.771C385.203 123.771 383.13 124.186 380.435 125.222C374.63 127.295 368.41 128.332 361.569 128.332C355.556 128.332 349.959 127.088 344.361 124.807C338.763 122.527 333.995 119.21 329.641 115.063C325.288 110.917 321.763 105.734 319.068 99.307C316.787 93.9166 315.543 86.8677 315.543 79.4041Z" fill="#000000"/>
<path d="M414.226 127.295V123.771H427.287V34.2081H414.226V30.6836H454.239V34.2081H441.385V123.978H461.495C466.056 123.978 469.996 123.356 473.313 121.905C476.63 120.454 479.532 118.173 482.02 114.649C484.508 110.917 486.374 107.393 487.618 103.661C488.654 99.929 489.691 95.7825 490.106 91.0141H494.459L492.594 127.295H414.226Z" fill="#000000"/>
<path d="M507.108 127.295V123.771H519.962V34.208H507.108V30.6836H582.78L583.402 55.9768H579.878C579.463 54.1109 579.256 52.6596 578.841 51.623C578.426 50.5864 578.012 48.9279 576.975 46.8546C576.146 44.7814 574.902 42.9155 573.658 41.0496C570.341 36.4886 565.158 34.0007 558.109 34.0007H534.06V74.843H546.706C551.267 74.843 554.999 72.3552 558.109 67.5868C559.146 66.1355 559.975 63.855 560.597 61.1598C561.426 58.4646 561.633 56.3914 561.633 55.1475H565.158V97.8557H561.633C561.633 96.6118 561.219 94.5386 560.597 91.8434C559.975 89.1482 558.938 87.075 558.109 85.4164C554.999 80.648 551.06 78.1602 546.706 78.1602H534.06V123.564H556.865C566.816 123.564 574.073 120.454 578.634 114.441C580.707 111.539 582.366 108.844 583.195 106.356C584.024 103.868 584.853 100.758 585.475 96.8191H589L588.585 126.881H507.108V127.295ZM538.206 20.5248L555.414 4.35375C558.524 1.45125 561.426 0 564.121 0C565.365 0 566.402 0.414643 567.231 1.45125C568.06 2.48786 568.475 3.52446 568.475 4.76839C568.475 7.46357 565.987 10.1587 561.011 12.4393L539.865 22.3907L538.206 20.5248Z" fill="#000000"/>
</g>
</svg>
