<svg width="175" height="39" viewBox="0 0 175 39" fill="none" xmlns="http://www.w3.org/2000/svg">
<path d="M0 37.8214V36.7742H3.88068V10.1639H0V9.1167H17.2475C20.3274 9.1167 22.6065 9.73268 24.0848 10.9646C25.5632 12.1966 26.3024 13.8597 26.3024 16.0773C26.3024 17.6788 25.748 19.034 24.5776 20.0811C23.4073 21.1899 21.9905 21.8675 20.2042 22.2371V22.4835C22.4833 22.7915 24.2696 23.5922 25.5632 24.8858C26.8567 26.241 27.5343 27.9041 27.5343 29.9368C27.5343 32.4008 26.6104 34.3719 24.824 35.727C22.9761 37.1438 20.5121 37.8214 17.3706 37.8214H0ZM8.00774 21.8059H17.8634C19.2802 21.8059 20.3274 21.3131 21.0665 20.2659C21.8057 19.2188 22.1137 17.9252 22.1137 16.2621C22.1137 15.4613 22.0521 14.7221 21.8673 14.0445C21.6825 13.367 21.4361 12.751 21.0665 12.135C20.6969 11.519 20.1426 11.0262 19.465 10.7182C18.7258 10.3487 17.8634 10.2255 16.8779 10.2255H8.00774V21.8059ZM8.00774 36.7742H17.0011C20.9433 36.7742 22.9145 34.4335 22.9145 29.6904C22.9145 27.5345 22.4833 25.8714 21.6825 24.6394C20.8817 23.4074 19.5882 22.7915 17.8634 22.7915H8.00774V36.7742Z" fill="black"/>
<path d="M32.0312 23.592C32.0312 21.7441 32.2776 20.0809 32.7704 18.4178C33.2632 16.8162 34.0024 15.3995 34.8648 14.2291C35.7271 13.0587 36.7743 12.0116 37.9447 11.1492C39.115 10.2868 40.347 9.60925 41.7021 9.17807C43.0573 8.74688 44.4125 8.50049 45.8292 8.50049C47.246 8.50049 48.6011 8.74688 49.9563 9.17807C51.3114 9.60925 52.5434 10.2868 53.7137 11.1492C54.8841 12.0116 55.9313 13.0587 56.7936 14.2291C57.656 15.3995 58.3952 16.8162 58.888 18.4178C59.3808 20.0193 59.6272 21.7441 59.6272 23.592C59.6272 25.8711 59.2576 27.9039 58.4568 29.8134C57.656 31.7229 56.6089 33.2629 55.3153 34.4949C54.0217 35.7268 52.5434 36.7124 50.9418 37.39C49.2787 38.0675 47.6155 38.4371 45.8292 38.4371C44.0429 38.4371 42.3797 38.0675 40.7166 37.39C39.0534 36.7124 37.6367 35.7268 36.3431 34.4949C35.0496 33.2629 34.0024 31.7229 33.2016 29.8134C32.4008 27.9039 32.0312 25.8095 32.0312 23.592ZM36.7127 23.592C36.7127 28.1503 37.5135 31.5382 39.0534 33.8789C40.655 36.2196 42.8725 37.39 45.7676 37.39C48.6627 37.39 50.9418 36.2196 52.4818 33.8789C54.0833 31.5382 54.8225 28.0887 54.8225 23.592C54.8225 19.0338 54.0217 15.5843 52.4202 13.1819C50.8186 10.7796 48.6011 9.60925 45.706 9.60925C42.8109 9.60925 40.5934 10.7796 38.9918 13.1819C37.5135 15.5227 36.7127 19.0338 36.7127 23.592Z" fill="black"/>
<path d="M63.5703 37.8214V36.7742H67.6358V10.1639H63.5703V9.1167H73.5492L85.8072 29.2593V10.1639H81.6801V9.1167H91.1662V10.1639H87.1008V38.4374H85.9304L69.3605 11.3342C69.1141 10.9646 68.9909 10.5335 68.9909 10.1639H68.8677V36.8358H72.9332V37.883H63.5703V37.8214Z" fill="black"/>
<path d="M93.7539 23.592C93.7539 21.7441 94.0003 20.0809 94.4931 18.4178C94.9859 16.8162 95.725 15.3995 96.5874 14.2291C97.4498 13.0587 98.4969 12.0116 99.6673 11.1492C100.838 10.2868 102.07 9.60925 103.425 9.17807C104.78 8.74688 106.135 8.50049 107.552 8.50049C109.585 8.50049 111.433 8.80848 113.157 9.42446C113.958 9.73245 114.574 9.85564 115.067 9.85564C115.498 9.85564 115.806 9.73245 115.991 9.54765C116.237 9.30126 116.484 8.99327 116.668 8.50049H117.531V17.925H116.668C116.176 15.9538 115.436 14.2291 114.389 12.8123C114.081 12.3812 113.773 12.0116 113.404 11.642C113.096 11.334 112.603 10.9644 112.11 10.5948C111.556 10.2252 110.878 9.97884 110.139 9.73245C109.338 9.54765 108.476 9.42446 107.49 9.42446C104.595 9.42446 102.378 10.5948 100.776 12.9971C99.1745 15.3995 98.3738 18.849 98.3738 23.4072C98.3738 27.9655 99.1745 31.3534 100.714 33.6941C102.316 36.0348 104.534 37.2052 107.429 37.2052C108.414 37.2052 109.277 37.082 110.077 36.8972C110.878 36.7124 111.494 36.4044 112.049 36.0348C112.603 35.6652 113.034 35.3572 113.342 34.9876C113.65 34.6797 114.02 34.2485 114.328 33.8173C115.375 32.4005 116.114 30.6758 116.607 28.7046H117.469V38.1291H116.607C116.422 37.8211 116.299 37.5748 116.176 37.39C116.052 37.2052 115.868 37.082 115.683 36.9588C115.498 36.8356 115.19 36.774 114.944 36.774C114.451 36.774 113.835 36.8972 113.034 37.2052C111.309 37.8212 109.461 38.1291 107.429 38.1291C105.642 38.1291 103.979 37.7596 102.316 37.082C100.653 36.4044 99.2361 35.4188 97.9426 34.1869C96.649 32.9549 95.6018 31.415 94.8011 29.5054C94.1235 27.9039 93.7539 25.8095 93.7539 23.592Z" fill="black"/>
<path d="M123.074 37.8214V36.7742H126.955V10.1639H123.074V9.1167H134.963V10.1639H131.144V36.8358H137.119C138.474 36.8358 139.644 36.651 140.63 36.2198C141.615 35.7886 142.478 35.1111 143.217 34.0639C143.956 32.9551 144.51 31.908 144.88 30.7992C145.188 29.6904 145.496 28.4585 145.619 27.0417H146.913L146.358 37.8214H123.074Z" fill="black"/>
<path d="M150.668 37.8212V36.774H154.487V10.1637H150.668V9.11651H173.151L173.336 16.6315H172.289C172.166 16.0771 172.104 15.6459 171.981 15.3379C171.858 15.0299 171.734 14.5371 171.427 13.9212C171.18 13.3052 170.811 12.7508 170.441 12.1964C169.455 10.8413 167.915 10.1021 165.821 10.1021H158.676V22.2369H162.433C163.788 22.2369 164.897 21.4977 165.821 20.081C166.129 19.6498 166.375 18.9722 166.56 18.1714C166.807 17.3706 166.868 16.7547 166.868 16.3851H167.915V29.0743H166.868C166.868 28.7047 166.745 28.0887 166.56 27.2879C166.375 26.4872 166.067 25.8712 165.821 25.3784C164.897 23.9616 163.727 23.2225 162.433 23.2225H158.676V36.7124H165.451C168.408 36.7124 170.564 35.7885 171.919 34.0021C172.535 33.1397 173.028 32.339 173.274 31.5998C173.521 30.8606 173.767 29.9366 173.952 28.7663H174.999L174.876 37.698H150.668V37.8212ZM159.908 6.0982L165.02 1.29356C165.944 0.431186 166.807 0 167.607 0C167.977 0 168.285 0.123196 168.531 0.431186C168.778 0.739176 168.901 1.04717 168.901 1.41675C168.901 2.21753 168.162 3.0183 166.683 3.69588L160.4 6.65259L159.908 6.0982Z" fill="black"/>
</svg>
