<svg width="589" height="130" viewBox="0 0 589 130" fill="none" xmlns="http://www.w3.org/2000/svg">
<g style="mix-blend-mode:exclusion">
<path d="M58.4647 126.795H0.5V124.271H13.0613H13.5613V123.771V34.2081V33.7081H13.0613H0.5V31.1836H58.05C68.365 31.1836 75.8969 33.2493 80.7426 37.2873C85.5897 41.3266 88.0263 46.7756 88.0263 54.1109C88.0263 59.3727 86.2112 63.7933 82.3879 67.2142L82.3825 67.2189L82.3774 67.2238C78.5183 70.8798 73.8399 73.1245 67.9001 74.3534L67.5014 74.4359V74.8431V75.6723V76.1093L67.9345 76.1678C75.5227 77.1933 81.4227 79.8514 85.6807 84.1073C89.9405 88.5719 92.1727 94.0435 92.1727 100.758C92.1727 108.912 89.1228 115.392 83.2483 119.848L83.2463 119.85C77.142 124.53 68.9695 126.795 58.4647 126.795ZM26.4518 73.3918V73.8918H26.9518H60.1232C65.0293 73.8918 68.7175 72.1733 71.3124 68.4971C73.8807 64.8587 74.9284 60.3905 74.9284 54.7329C74.9284 52.0151 74.7198 49.4781 74.0815 47.1377C73.4494 44.82 72.6036 42.7033 71.3327 40.5851C70.0368 38.4253 68.0956 36.7004 65.7289 35.6226C63.1437 34.3323 60.1551 33.9154 56.8061 33.9154H26.9518H26.4518V34.4154V73.3918ZM26.4518 123.771V124.271H26.9518H57.2207C63.9569 124.271 69.0931 122.267 72.5314 118.157C75.9551 114.065 77.6236 107.968 77.6236 99.929C77.6236 92.6099 76.1601 86.9081 73.3964 82.6561C70.59 78.3385 66.0594 76.209 60.1232 76.209H26.9518H26.4518V76.709V123.771Z" fill="white" stroke="black"/>
<path d="M131.026 114.302L131.026 114.302L131.032 114.309C136.516 122.325 144.135 126.344 154.042 126.344C163.942 126.344 171.774 122.331 177.056 114.305C182.528 106.304 185.018 94.5743 185.018 79.4041C185.018 64.0153 182.317 52.2915 176.849 44.0894C171.365 35.8628 163.744 31.8421 153.835 31.8421C143.926 31.8421 136.305 35.8628 130.821 44.0894L130.821 44.0893L130.814 44.0998C125.767 52.0912 123.066 64.017 123.066 79.4041C123.066 94.7933 125.768 106.308 131.026 114.302ZM108.31 79.4041C108.31 73.2329 109.132 67.6838 110.776 62.1336C112.418 56.7989 114.88 52.0818 117.749 48.1878C120.622 44.2892 124.11 40.8004 128.009 37.9277C131.914 35.0507 136.012 32.7988 140.511 31.3673C145.031 29.9289 149.541 29.1104 154.25 29.1104C158.958 29.1104 163.468 29.9289 167.988 31.3673C172.487 32.7988 176.586 35.0507 180.49 37.9277C184.389 40.8004 187.878 44.2892 190.75 48.1878C193.62 52.0824 196.082 56.8003 197.724 62.1361C199.366 67.4742 200.19 73.2292 200.19 79.4041C200.19 87.0185 198.955 93.793 196.289 100.15C193.618 106.521 190.131 111.644 185.832 115.738C181.521 119.844 176.596 123.127 171.266 125.382C165.721 127.641 160.188 128.869 154.25 128.869C148.31 128.869 142.777 127.641 137.231 125.381C131.701 123.128 126.984 119.849 122.667 115.738C118.368 111.644 114.881 106.521 112.21 100.15C109.544 93.7938 108.31 86.8122 108.31 79.4041Z" fill="white" stroke="black"/>
<path d="M288.797 33.7081H275.407V31.1836H306.334V33.7081H293.151H292.651V34.2081V128.869H289.492L233.869 37.8864L233.864 37.878L233.858 37.8698C233.082 36.7054 232.698 35.3502 232.698 34.2081V33.7081H232.198H231.784H231.284V34.2081V123.978V124.478H231.784H244.967V127.003H214.454V124.271H227.637H228.137V123.771V34.2081V33.7081H227.637H214.454V31.1836H247.259L288.37 98.7376L289.297 100.261V98.4777V34.2081V33.7081H288.797Z" fill="white" stroke="black"/>
<path d="M377.625 35.2593L377.614 35.251L377.602 35.2433C375.674 33.9576 373.333 33.1106 370.849 32.2824L370.826 32.2749L370.803 32.2696C368.077 31.6405 365.136 31.2202 361.776 31.2202C351.867 31.2202 344.246 35.2408 338.762 43.4675C333.293 51.6696 330.592 63.3933 330.592 78.7821C330.592 94.1714 333.294 105.686 338.553 113.68L338.552 113.68L338.558 113.687C344.042 121.703 351.661 125.722 361.568 125.722C364.929 125.722 367.869 125.302 370.596 124.673C373.361 124.035 375.489 122.97 377.395 121.699C379.247 120.464 380.752 119.396 381.841 118.096C382.893 117.042 384.146 115.578 385.193 114.113C388.697 109.372 391.179 103.634 392.848 97.1118H394.862V127.832H392.744C392.536 127.478 392.351 127.15 392.179 126.844C392.15 126.791 392.121 126.739 392.092 126.687C391.859 126.274 391.643 125.896 391.424 125.567C390.954 124.861 390.26 124.399 389.661 124L389.627 123.977C388.89 123.486 387.741 123.271 386.862 123.271C385.123 123.271 382.988 123.705 380.261 124.753C374.516 126.804 368.356 127.832 361.568 127.832C355.629 127.832 350.095 126.604 344.549 124.344C339.019 122.092 334.303 118.813 329.986 114.701C325.687 110.607 322.2 105.484 319.529 99.1136L319.528 99.1122C317.28 93.7981 316.043 86.8188 316.043 79.4041C316.043 73.2329 316.865 67.6838 318.509 62.1336C320.151 56.7989 322.613 52.0818 325.482 48.1878C328.355 44.2892 331.844 40.8004 335.742 37.9277C339.647 35.0507 343.745 32.7988 348.244 31.3673C352.765 29.9289 357.274 29.1104 361.983 29.1104C368.77 29.1104 374.931 30.1381 380.675 32.189C383.403 33.2375 385.537 33.6714 387.276 33.6714C388.817 33.6714 389.997 33.2307 390.74 32.4884C391.551 31.6772 392.37 30.6654 393.007 29.1104H395.069V59.8305H393.056C391.386 53.3086 388.904 47.5707 385.4 42.8291C384.35 41.3591 383.296 40.0946 382.032 38.8302C380.97 37.7684 379.29 36.5084 377.652 35.2799L377.625 35.2593Z" fill="white" stroke="black"/>
<path d="M492.119 126.795H414.727V124.271H427.288H427.788V123.771V34.2081V33.7081H427.288H414.727V31.1836H453.74V33.7081H441.386H440.886V34.2081V123.978V124.478H441.386H461.496C466.099 124.478 470.112 123.851 473.514 122.363C476.916 120.874 479.89 118.534 482.429 114.937L482.429 114.937L482.437 114.926C484.941 111.169 486.831 107.605 488.093 103.819L488.097 103.807L488.1 103.795C489.106 100.173 490.119 96.1374 490.563 91.5141H493.934L492.119 126.795Z" fill="white" stroke="black"/>
<path d="M546.707 75.343C551.487 75.343 555.355 72.7217 558.523 67.8687C559.612 66.339 560.456 63.9912 561.08 61.2897C561.819 58.8848 562.074 56.9569 562.124 55.6475H564.658V97.3557H562.116C562.029 96.0304 561.629 94.0923 561.084 91.731C560.449 88.9776 559.391 86.8605 558.562 85.2025L558.557 85.1928L558.544 85.1672L558.528 85.1433C555.357 80.2802 551.279 77.6602 546.707 77.6602H534.06H533.56V78.1602V123.564V124.064H534.06H556.866C566.924 124.064 574.351 120.915 579.033 114.744L579.037 114.738L579.041 114.732C581.119 111.823 582.815 109.077 583.67 106.514C584.477 104.091 585.284 101.088 585.902 97.3191H588.493L588.093 126.381H507.608V124.271H519.962H520.462V123.771V34.208V33.708H519.962H507.608V31.1836H582.293L582.89 55.4768H580.281C580.194 55.0724 580.118 54.6949 580.045 54.3344C579.978 54.006 579.915 53.6917 579.849 53.3842C579.693 52.6552 579.53 51.9977 579.306 51.4373C579.194 51.1582 579.076 50.8084 578.938 50.4006C578.607 49.4244 578.164 48.1159 577.432 46.6496C576.584 44.5358 575.319 42.6395 574.089 40.7935L574.075 40.7723L574.069 40.7638L574.063 40.7556C570.635 36.0419 565.287 33.5007 558.109 33.5007H534.06H533.56V34.0007V74.843V75.343H534.06H546.707ZM560.804 11.9847L560.799 11.9869L539.991 21.7791L538.903 20.5561L555.755 4.71928C555.756 4.71918 555.756 4.71907 555.756 4.71897C558.824 1.85522 561.609 0.5 564.122 0.5C565.233 0.5 566.118 0.859756 566.841 1.7636C567.612 2.72679 567.976 3.65609 567.976 4.76839C567.976 5.95097 567.432 7.1808 566.249 8.41306C565.063 9.64808 563.258 10.86 560.804 11.9847Z" fill="white" stroke="black"/>
</g>
</svg>
